<?xml version="1.0" standalone="no"?>
<!DOCTYPE svg PUBLIC "-//W3C//DTD SVG 20010904//EN"
 "http://www.w3.org/TR/2001/REC-SVG-20010904/DTD/svg10.dtd">
<svg version="1.0" xmlns="http://www.w3.org/2000/svg"
 width="512.000000pt" height="512.000000pt" viewBox="0 0 512.000000 512.000000"
 preserveAspectRatio="xMidYMid meet">

<g transform="translate(0.000000,512.000000) scale(0.100000,-0.100000)"
fill="#000000" stroke="none">
<path d="M2400 5109 c-514 -33 -970 -203 -1385 -516 -122 -92 -180 -142 -172
-150 3 -3 30 4 61 16 177 66 397 91 587 66 115 -15 233 -46 334 -88 46 -19
396 -220 1540 -882 226 -130 416 -242 423 -247 9 -8 12 -57 12 -182 0 -390 14
-1056 22 -1056 12 0 496 273 578 326 233 150 400 376 466 629 22 85 26 122 26
245 1 265 -55 432 -240 712 -378 571 -982 968 -1662 1092 -176 32 -415 46
-590 35z"/>
<path d="M1075 4340 c-152 -19 -310 -79 -428 -164 -76 -53 -188 -170 -242
-251 -53 -79 -193 -358 -233 -463 -435 -1141 26 -2450 1082 -3075 170 -100
515 -252 532 -234 4 3 -9 18 -27 33 -74 60 -198 193 -246 264 -67 100 -127
221 -164 330 -59 177 -59 178 -59 1396 l0 1112 203 118 c111 65 330 191 487
281 342 195 352 201 346 212 -10 16 -575 333 -647 363 -128 54 -250 79 -399
83 -74 2 -166 0 -205 -5z"/>
<path d="M5036 3069 c-3 -8 -12 -52 -21 -99 -22 -111 -76 -254 -136 -360 -112
-200 -279 -359 -515 -494 -230 -131 -1106 -636 -1456 -837 -180 -104 -330
-189 -333 -189 -8 0 -559 317 -845 486 -123 73 -226 131 -228 129 -2 -2 -3
-174 -3 -381 2 -283 6 -396 17 -454 79 -419 378 -738 790 -842 78 -20 114 -22
289 -22 395 0 736 80 1090 254 544 267 957 696 1207 1255 200 447 261 931 181
1445 -15 103 -27 138 -37 109z"/>
</g>
</svg>
