<?xml version="1.0" encoding="UTF-8" standalone="no"?>
<svg
   xmlns:dc="http://purl.org/dc/elements/1.1/"
   xmlns:cc="http://creativecommons.org/ns#"
   xmlns:rdf="http://www.w3.org/1999/02/22-rdf-syntax-ns#"
   xmlns:svg="http://www.w3.org/2000/svg"
   xmlns="http://www.w3.org/2000/svg"
   xmlns:sodipodi="http://sodipodi.sourceforge.net/DTD/sodipodi-0.dtd"
   xmlns:inkscape="http://www.inkscape.org/namespaces/inkscape"
   width="256"
   height="256"
   viewBox="0 0 256 256"
   fill="none"
   version="1.1"
   id="svg917"
   sodipodi:docname="Burger Swap Coin Icon 256x256.svg"
   inkscape:version="1.0.2 (e86c870879, 2021-01-15, custom)">
  <metadata
     id="metadata921">
    <rdf:RDF>
      <cc:Work
         rdf:about="">
        <dc:format>image/svg+xml</dc:format>
        <dc:type
           rdf:resource="http://purl.org/dc/dcmitype/StillImage" />
        <dc:title></dc:title>
      </cc:Work>
    </rdf:RDF>
  </metadata>
  <sodipodi:namedview
     pagecolor="#ffffff"
     bordercolor="#666666"
     borderopacity="1"
     objecttolerance="10"
     gridtolerance="10"
     guidetolerance="10"
     inkscape:pageopacity="0"
     inkscape:pageshadow="2"
     inkscape:window-width="1366"
     inkscape:window-height="705"
     id="namedview919"
     showgrid="false"
     inkscape:zoom="1.0225"
     inkscape:cx="90.999546"
     inkscape:cy="130.59137"
     inkscape:window-x="-8"
     inkscape:window-y="-8"
     inkscape:window-maximized="1"
     inkscape:current-layer="svg917" />
  <circle
     style="fill:#f0b80b;fill-opacity:1;stroke-width:0.809294"
     id="path938"
     cx="128"
     cy="128"
     r="128" />
  <g
     id="g944"
     transform="matrix(1.2520109,0,0,1.2520109,-33.934768,-32.259813)">
    <path
       d="m 129.60408,73.473293 c 5.96389,0.485942 14.29192,0.748799 22.48918,1.917713 10.31219,1.484341 20.32165,4.374396 28.89982,10.719076 6.09513,4.545368 10.78502,10.298963 12.42712,17.996788 0.91914,4.32182 1.69424,8.69622 2.43,13.05782 0.36766,2.16731 -0.68318,3.34948 -2.89002,2.98148 -6.56796,-1.05051 -13.01793,-2.15406 -19.49398,-3.376 -1.05586,-0.27428 -1.98415,-0.9056 -2.62754,-1.78651 -2.10168,-2.90286 -5.58297,-3.94057 -8.26265,-1.76 -2.67968,2.18057 -5.34655,2.0096 -8.44647,1.91771 -14.34497,-0.43337 -28.70319,-0.60434 -43.06096,-0.84068 -2.62709,0 -4.79461,0.32868 -6.56796,-2.81097 -2.27269,-4.01966 -9.497764,-3.42857 -11.82259,0.64366 -0.549197,1.08114 -1.379623,1.99451 -2.403479,2.64365 -1.023857,0.6496 -2.204104,1.01166 -3.415904,1.04777 -6.200756,0.61714 -12.361272,1.56297 -18.535506,2.3776 -0.380917,0 -0.748572,0.0919 -1.129946,0.11794 -4.833938,0.31543 -5.66162,-0.4992 -5.333291,-5.37279 0.630593,-9.73394 4.164476,-18.285703 11.310436,-24.958612 4.637306,-4.321825 10.509276,-6.949023 16.499225,-9.01165 12.124855,-4.124796 24.840985,-4.755196 39.934515,-5.503995 z m -14.00337,9.996792 c 2.141,-1.524113 4.54493,-2.364798 5.25464,-3.941026 0.70924,-1.576227 -1.57672,-1.813027 -2.90329,-1.825827 -1.9837,0 -4.22987,0 -4.49281,2.627198 -0.0919,0.801371 1.12995,1.694627 2.14146,3.139655 z m 24.18386,-6.699881 -4.2166,2.627655 c 1.5511,0.995657 3.23619,1.765027 5.00496,2.285713 0.84048,0.1312 1.97043,-1.432228 2.96868,-2.233141 z m -48.604142,11.074277 5.359356,-4.295768 c -0.80116,-0.591085 -1.550189,-1.589484 -2.403936,-1.68137 -2.324827,-0.276114 -5.346552,1.536913 -5.083615,2.916112 0.13124,0.788114 1.024771,1.510856 2.101673,2.995197 z m 34.390882,-1.432227 c 1.31331,-0.183772 1.99649,-0.07863 2.35134,-0.3808 1.02066,-0.931199 1.99421,-1.913141 2.9161,-2.942626 -1.1679,-0.475886 -2.3605,-0.888228 -3.57321,-1.234742 -0.27757,-0.05531 -0.56337,-0.05486 -0.84094,0.0014 -0.27758,0.05623 -0.54097,0.167772 -0.77464,0.327314 -0.92051,0.7744 -1.79758,1.598628 -2.62709,2.469484 z m 34.61403,-4.190168 c 1.11668,2.850283 3.1525,4.255996 5.59577,3.783311 0.79658,-0.163657 1.49531,-0.635885 1.94436,-1.313828 0.19709,-0.328228 -0.38091,-1.392456 -0.867,-1.813027 -0.89308,-0.820113 -2.02531,-1.333027 -3.23116,-1.462856 -1.2054,-0.130285 -2.42086,0.129372 -3.4685,0.740571 z m -13.53055,4.860338 c 1.31378,-0.197028 2.07561,-0.07909 2.52237,-0.433371 0.90634,-0.722742 2.29877,-1.773712 2.23292,-2.627655 -0.1445,-1.668113 -1.65491,-2.075426 -3.24443,-1.523655 -0.64797,0.134399 -1.26621,0.383542 -1.82593,0.735542 -0.66123,0.661485 -1.2589,1.382856 -1.7866,2.154512 z m -40.28891,1.313371 c 1.31377,-1.313371 2.83744,-2.075427 2.81092,-2.837026 -0.0787,-2.627655 -2.62709,-2.259656 -4.2692,-2.404113 -0.89307,-0.07863 -1.89132,1.037714 -2.83744,1.615542 z"
       fill="#1e2125"
       id="path880"
       style="stroke-width:4.57213" />
    <path
       d="m 122.64104,182.53057 c -10.18049,-0.56457 -20.38751,-0.76159 -30.515408,-1.78651 -12.584426,-1.31337 -23.053919,-6.44982 -28.636886,-18.65324 -0.876612,-2.18194 -1.344412,-4.50651 -1.379623,-6.85714 0,-0.69623 1.602777,-2.16777 2.417198,-2.12845 6.397388,0.35474 12.768254,1.07748 19.165642,1.51085 6.029732,0.39406 12.059465,0.57829 18.088737,0.82789 1.94437,0.0786 3.35006,0.49874 4.03278,2.71908 0.65666,1.56297 1.58129,2.99886 2.73272,4.24274 2.40394,3.13966 5.12295,3.42857 8.26265,1.02491 1.14275,-0.64685 2.20182,-1.43222 3.15251,-2.33828 3.59927,-4.70308 8.38108,-5.47794 14.00337,-5.50399 17.18332,-0.15223 34.33052,-1.5968 51.29709,-4.32183 2.03628,-0.31543 4.01997,-0.94583 6.04299,-1.31383 2.37742,-0.42011 3.44151,0.59109 3.52017,3.08709 0.30226,9.2873 -5.25419,17.22147 -13.56942,21.32021 -13.3993,6.56776 -27.82292,7.02765 -42.18069,7.96022 -5.45173,0.35474 -10.94278,0 -16.42057,0 z"
       fill="#1e2125"
       id="path882"
       style="stroke-width:4.57213" />
    <path
       d="m 196.20277,133.96604 c -4.58426,-1.7472 -8.95863,-3.13965 -13.13637,-5.07062 -2.79765,-1.31337 -5.05709,-1.93097 -7.80262,0.19703 -1.32383,1.03634 -2.94444,1.62194 -4.62496,1.67131 -1.68005,0.0498 -3.33222,-0.43931 -4.71504,-1.3952 -1.00099,-0.6848 -2.18215,-1.05874 -3.39487,-1.0752 -1.21271,-0.0165 -2.40348,0.32549 -3.42276,0.98332 -2.26447,1.19222 -4.77907,1.83268 -7.33802,1.86879 -2.55896,0.0366 -5.09002,-0.53165 -7.38786,-1.65897 -1.05084,-0.60617 -2.22834,-0.95862 -3.43923,-1.02948 -1.21134,-0.0704 -2.42223,0.14263 -3.53617,0.62263 -1.18527,0.62537 -2.53609,0.86537 -3.86404,0.68663 -1.3284,-0.1792 -2.56764,-0.768 -3.54486,-1.68503 -0.71473,-0.76114 -1.67182,-1.24937 -2.70757,-1.38149 -1.03529,-0.13165 -2.08475,0.10103 -2.96731,0.65875 -2.22879,1.05097 -4.66245,1.59588 -7.12629,1.59588 -2.4643,0 -4.8975,-0.54491 -7.1263,-1.59588 -2.11493,-0.86675 -3.52062,-1.10309 -5.25464,1.22194 -1.23466,1.68137 -3.84895,2.6272 -6.042535,3.27085 -2.025306,0.68434 -4.169506,0.94674 -6.299987,0.77074 -2.130481,-0.17645 -4.20243,-0.7872 -6.087808,-1.79519 -1.112569,-0.6176 -2.344032,-0.99155 -3.612078,-1.09806 -1.268045,-0.10651 -2.543865,0.0571 -3.744232,0.48046 -3.809624,1.05097 -7.618791,1.18217 -11.244588,-0.90652 -2.03628,-1.16891 -3.665122,0 -5.491053,0.9984 -2.345404,1.29463 -4.881495,2.208 -7.514073,2.70629 -0.74903,-0.016 -1.48114,-0.22492 -2.125451,-0.60709 -0.644312,-0.38217 -1.179333,-0.92434 -1.552476,-1.57348 -0.09466,-0.78949 0.0096,-1.58995 0.303179,-2.32869 0.294033,-0.73874 0.767778,-1.39245 1.378251,-1.90125 3.546686,-1.85235 7.303723,-3.8752 11.178738,-4.40091 9.195503,-1.31337 18.588094,-1.81257 27.914836,-2.46949 20.545267,-1.66903 41.190677,-1.69965 61.740517,-0.0919 10.50881,0.93257 21.01809,1.82582 31.52691,3.15245 4.22987,0.53851 8.31523,2.19383 12.46645,3.33668 2.35135,0.65692 4.33504,2.08869 3.36286,4.55817 -0.52542,1.39246 -2.86351,2.04937 -4.76855,3.28411 z"
       fill="#1e2125"
       id="path884"
       style="stroke-width:4.57213" />
    <path
       d="m 100.62652,151.529 c -11.822591,-0.70903 -23.527205,-1.392 -35.297211,-2.16731 -2.390675,-0.14446 -3.388923,-2.02286 -3.284206,-5.2544 0.09191,-2.41691 1.536928,-3.10034 3.58647,-2.96868 8.932565,0.57783 17.86513,1.31337 26.810956,1.76 21.977021,0.94582 43.954031,1.2352 65.891731,-1.06377 10.58792,-1.1168 21.20192,-1.98354 31.80311,-2.94263 1.98323,-0.18377 4.17728,-0.59108 4.66337,2.2464 0.34159,1.97028 -1.57671,4.256 -4.08537,4.66331 -5.64378,1.12091 -11.34473,1.93234 -17.07723,2.43017 -20.92618,1.03771 -41.86562,1.76045 -62.79135,2.54857 -3.40264,0.1312 -6.79156,0 -10.19375,0 z"
       fill="#1e2125"
       id="path886"
       style="stroke-width:4.57213" />
  </g>
  <defs
     id="defs915">
    <clipPath
       id="clip0">
      <rect
         width="178"
         height="56"
         fill="#ffffff"
         id="rect912"
         x="0"
         y="0" />
    </clipPath>
  </defs>
</svg>
