<?xml version="1.0" encoding="iso-8859-1"?>
<!-- Uploaded to: SVG Repo, www.svgrepo.com, Generator: SVG Repo Mixer Tools -->
<svg fill="#000000" height="800px" width="800px" version="1.1" id="Layer_1" xmlns="http://www.w3.org/2000/svg" xmlns:xlink="http://www.w3.org/1999/xlink" 
	 viewBox="0 0 512 512" xml:space="preserve">
<g>
	<g>
		<path d="M379.154,76.8H275.2V57.6c0-31.761-25.839-57.6-57.6-57.6C185.839,0,160,25.839,160,57.6v19.2h-27.153L83.2,126.447
			v335.906L132.846,512h246.307l49.647-49.647V126.447L379.154,76.8z M198.4,57.6c0-10.587,8.613-19.2,19.2-19.2
			c10.587,0,19.2,8.613,19.2,19.2v19.2h-38.4V57.6z M121.599,142.353h0.001l27.153-27.153h214.496l26.917,26.918
			c-1.837,31.05-14.982,56.008-40.978,78.031c-26.788,22.694-62.926,39.259-101.189,56.795
			c-38.936,17.846-88.32,38.574-126.4,78.065V142.353z M390.401,446.447H390.4L363.247,473.6H148.753l-26.918-26.92
			c1.837-31.05,14.982-56.008,40.978-78.031c26.787-22.694,62.988-39.127,101.189-56.795c65.76-30.414,99.68-48.334,126.4-78.065
			V446.447z"/>
	</g>
</g>
</svg>