<?xml version="1.0" encoding="iso-8859-1"?>
<!-- Uploaded to: SVG Repo, www.svgrepo.com, Generator: SVG Repo Mixer Tools -->
<svg fill="#000000" height="800px" width="800px" version="1.1" id="Layer_1" xmlns="http://www.w3.org/2000/svg" xmlns:xlink="http://www.w3.org/1999/xlink" 
	 viewBox="0 0 512 512" xml:space="preserve">
<g>
	<g>
		<path d="M324.699,207.36v-24.503h27.681L334.094,73.143H214.985V36.571h30.476V0h-67.048v73.143H59.302L41.017,182.857h27.681V512
			h347.429c30.248,0,54.857-24.609,54.857-54.857V347.429C470.985,272.006,405.906,210.315,324.699,207.36z M432.608,329.143
			H204.598c9.682-48.444,57.118-85.333,114.004-85.333C375.488,243.81,422.926,280.699,432.608,329.143z M90.284,109.714h212.829
			l6.095,36.571H84.189L90.284,109.714z M105.27,475.429V182.857h182.857v27.199c-69.47,13.026-121.905,69.67-121.905,137.372
			v109.714c0,6.41,1.115,12.562,3.145,18.286H105.27z M434.413,457.143c0,10.083-8.203,18.286-18.286,18.286H221.08
			c-10.083,0-18.286-8.203-18.286-18.286v-18.286h231.619V457.143z M416.127,402.286H221.08c-10.083,0-18.286-8.203-18.286-18.286
			c0-10.083,8.203-18.286,18.286-18.286h195.048c10.083,0,18.286,8.203,18.286,18.286
			C434.413,394.083,426.21,402.286,416.127,402.286z"/>
	</g>
</g>
</svg>